<svg width="26" height="20" viewBox="0 0 26 20" fill="none" xmlns="http://www.w3.org/2000/svg">
<path d="M21.5624 1.668C19.9147 0.888773 18.1529 0.322462 16.311 0C16.0847 0.413385 15.8205 0.969397 15.6382 1.4117C13.6802 1.11407 11.7402 1.11407 9.8182 1.4117C9.63602 0.969397 9.36574 0.413385 9.1375 0C7.29358 0.322462 5.52974 0.890853 3.88202 1.67213C0.558561 6.74839 -0.342375 11.6986 0.108093 16.5785C2.31239 18.2423 4.44862 19.253 6.54879 19.9144C7.06734 19.1931 7.52981 18.4263 7.92822 17.6181C7.16943 17.3267 6.44268 16.9671 5.75599 16.5495C5.93816 16.4131 6.11636 16.2705 6.28852 16.1237C10.4769 18.1038 15.0276 18.1038 19.1659 16.1237C19.3401 16.2705 19.5183 16.4131 19.6985 16.5495C19.0098 16.9691 18.281 17.3287 17.5222 17.6202C17.9206 18.4263 18.3811 19.1952 18.9017 19.9165C21.0039 19.2551 23.1421 18.2444 25.3464 16.5785C25.8749 10.9214 24.4434 6.01671 21.5624 1.668ZM8.49882 13.5774C7.24152 13.5774 6.21043 12.391 6.21043 10.9462C6.21043 9.50147 7.2195 8.31302 8.49882 8.31302C9.77818 8.31302 10.8092 9.49939 10.7872 10.9462C10.7892 12.391 9.77818 13.5774 8.49882 13.5774ZM16.9556 13.5774C15.6983 13.5774 14.6672 12.391 14.6672 10.9462C14.6672 9.50147 15.6763 8.31302 16.9556 8.31302C18.235 8.31302 19.266 9.49939 19.244 10.9462C19.244 12.391 18.235 13.5774 16.9556 13.5774Z" fill="white"/>
</svg>
