<svg width="24" height="23" viewBox="0 0 24 23" fill="none" xmlns="http://www.w3.org/2000/svg">
<path d="M1.9375 8.3375C1.9375 5.92227 1.9375 4.71466 2.40753 3.79217C2.82099 2.98072 3.48072 2.32099 4.29217 1.90753C5.21466 1.4375 6.42227 1.4375 8.8375 1.4375H15.1625C17.5777 1.4375 18.7853 1.4375 19.7078 1.90753C20.5193 2.32099 21.179 2.98072 21.5925 3.79217C22.0625 4.71466 22.0625 5.92227 22.0625 8.3375V14.6625C22.0625 17.0777 22.0625 18.2853 21.5925 19.2078C21.179 20.0193 20.5193 20.679 19.7078 21.0925C18.7853 21.5625 17.5777 21.5625 15.1625 21.5625H8.8375C6.42227 21.5625 5.21466 21.5625 4.29217 21.0925C3.48072 20.679 2.82099 20.0193 2.40753 19.2078C1.9375 18.2853 1.9375 17.0777 1.9375 14.6625V8.3375Z" fill="#4087FC"/>
<path d="M6.44167 7.1875C5.93886 7.1875 5.53125 7.64721 5.53125 8.21429V13.1942C5.53125 14.6402 6.57065 15.8125 7.85281 15.8125L13.2458 15.7612C13.7486 15.7612 14.1562 15.3015 14.1562 14.7344V9.70314C14.1562 8.25709 12.9228 7.18752 11.6406 7.18752L6.44167 7.1875Z" fill="white"/>
<path d="M15.3869 9.14796C15.0616 9.46965 14.875 9.93392 14.875 10.4219V12.5057C14.875 12.9937 15.0616 13.458 15.3869 13.7797L17.4113 15.5627C17.8233 15.97 18.4688 15.6401 18.4688 15.0222V8.0034C18.4688 7.38555 17.8233 7.05563 17.4113 7.46294L15.3869 9.14796Z" fill="white"/>
</svg>
